<?xml version="1.0" standalone="no"?>
<!DOCTYPE svg PUBLIC "-//W3C//DTD SVG 20010904//EN"
 "http://www.w3.org/TR/2001/REC-SVG-20010904/DTD/svg10.dtd">
<svg version="1.0" xmlns="http://www.w3.org/2000/svg"
 width="512.000000pt" height="512.000000pt" viewBox="0 0 512.000000 512.000000"
 preserveAspectRatio="xMidYMid meet">

<g transform="translate(0.000000,512.000000) scale(0.100000,-0.100000)"
fill="#000000" stroke="none">
<path d="M3460 5050 c-14 -5 -51 -11 -82 -15 -32 -3 -60 -11 -63 -16 -4 -5
-13 -9 -21 -9 -20 0 -101 -37 -109 -50 -9 -15 19 -12 41 5 10 8 29 15 42 15
12 0 22 4 22 8 0 18 159 37 293 35 137 -2 164 6 89 27 -44 12 -176 12 -212 0z"/>
<path d="M3744 5015 c11 -8 31 -15 45 -15 25 1 25 1 7 15 -11 8 -31 15 -45 15
-25 -1 -25 -1 -7 -15z"/>
<path d="M3822 4998 c3 -7 20 -14 39 -16 19 -2 38 -7 44 -11 5 -5 44 -21 85
-36 41 -16 95 -40 120 -53 25 -14 54 -30 65 -36 11 -6 42 -28 69 -48 61 -48
78 -49 32 -3 -20 19 -42 35 -51 35 -9 0 -18 7 -21 15 -8 21 -173 101 -279 136
-101 33 -108 34 -103 17z"/>
<path d="M3127 4930 c-24 -28 -21 -33 8 -14 14 9 25 20 25 25 0 15 -15 10 -33
-11z"/>
<path d="M3014 4834 c-35 -37 -61 -70 -58 -75 3 -5 -1 -9 -9 -9 -16 0 -81
-133 -74 -152 2 -7 15 10 28 37 13 28 26 52 29 55 3 3 11 17 19 32 8 15 45 62
83 103 86 93 70 100 -18 9z"/>
<path d="M2020 4691 c-110 -19 -215 -78 -311 -176 -35 -36 -68 -65 -75 -65 -6
0 -46 11 -88 25 -132 43 -326 31 -437 -26 -44 -23 -139 -125 -139 -150 0 -9
-3 -19 -7 -23 -13 -13 -33 -82 -34 -121 -3 -80 -11 -97 -64 -128 -68 -39 -118
-90 -161 -161 -142 -239 -39 -473 256 -577 53 -19 61 -41 32 -96 -11 -21 -28
-56 -40 -78 -19 -38 -42 -135 -47 -200 -3 -48 -17 -89 -34 -102 -28 -21 -3
-64 57 -95 29 -15 56 -27 60 -27 33 5 50 -27 32 -60 -5 -11 -12 -35 -14 -53
-2 -18 -9 -34 -15 -36 -23 -8 -10 -22 14 -16 13 3 39 1 57 -6 18 -6 74 -15
123 -19 76 -7 97 -12 135 -37 125 -82 397 -119 673 -91 73 7 77 7 77 -13 0
-11 -18 -38 -40 -60 l-40 -40 -82 0 c-248 -1 -395 -40 -526 -137 l-33 -25
-107 13 c-133 17 -126 17 -130 -1 -2 -13 15 -18 83 -28 48 -7 114 -20 148 -28
56 -14 75 -19 142 -43 59 -21 205 -103 273 -153 234 -174 475 -290 632 -305
l55 -5 70 68 c80 78 146 114 330 180 66 23 154 57 195 74 58 24 80 29 96 21
17 -8 26 -6 39 9 9 10 38 21 66 25 46 7 51 5 79 -25 23 -25 36 -31 53 -26 12
4 35 9 51 13 41 9 31 -13 -30 -62 -36 -30 -77 -49 -154 -74 -127 -41 -185 -72
-205 -111 -19 -36 -19 -44 1 -87 19 -40 80 -74 162 -92 68 -14 453 -16 514 -2
79 18 239 40 253 35 7 -3 17 -28 22 -55 12 -58 5 -64 -75 -79 -26 -4 -85 -15
-132 -24 -172 -33 -199 -36 -326 -36 -136 0 -174 -10 -161 -43 18 -48 372 -43
566 8 113 30 127 30 140 8 9 -17 14 -55 12 -79 -3 -35 -318 -99 -560 -114 -85
-5 -159 -14 -164 -19 -5 -5 -5 -17 2 -29 17 -31 84 -37 276 -23 146 11 213 20
333 48 18 4 25 -1 38 -32 19 -46 12 -56 -60 -80 -103 -34 -265 -55 -428 -55
-195 0 -242 -16 -189 -64 18 -16 40 -18 238 -14 120 3 225 7 233 11 25 11 42
-9 44 -49 l1 -39 -58 -11 c-126 -25 -312 -35 -449 -24 -475 39 -624 69 -822
167 -111 54 -151 66 -361 108 -66 13 -163 34 -215 45 -52 12 -126 28 -165 36
-38 8 -99 23 -135 33 -36 10 -103 29 -150 41 -47 12 -96 26 -110 30 -14 5 -79
25 -145 45 -212 66 -447 169 -573 253 -58 38 -147 121 -202 189 -19 24 -38 43
-42 43 -5 0 -8 -14 -8 -31 0 -24 -13 -45 -51 -87 -132 -144 -223 -327 -263
-526 -29 -141 -19 -199 51 -309 37 -59 51 -72 100 -94 54 -25 60 -25 187 -19
242 13 438 78 676 224 116 72 156 101 247 179 33 29 67 53 75 53 23 0 38 -22
38 -56 0 -18 5 -45 11 -61 11 -29 25 -91 59 -253 42 -201 49 -241 60 -361 6
-68 16 -134 22 -146 11 -22 95 -63 132 -63 11 0 39 -7 62 -14 22 -8 117 -22
210 -30 93 -9 221 -22 284 -29 83 -9 368 -12 1025 -12 896 0 913 0 1080 23
170 23 242 38 259 54 6 4 16 8 23 8 7 0 33 9 57 21 54 25 53 18 71 319 7 129
21 291 30 360 19 147 64 406 75 435 26 66 48 225 60 430 5 94 14 202 19 240
18 130 41 257 51 275 5 9 11 29 14 44 3 16 14 56 24 90 96 303 93 283 90 658
-3 385 -5 393 -85 423 -63 24 -328 19 -347 -7 -9 -12 -27 -18 -55 -18 -39 0
-41 -1 -41 -30 0 -17 -11 -52 -25 -78 -49 -90 -87 -157 -100 -172 -11 -13 -88
-125 -172 -250 -40 -59 -106 -122 -148 -140 -57 -26 -420 -100 -486 -100 -23
0 -60 11 -91 27 -61 32 -165 132 -193 185 l-19 38 30 62 c84 169 99 279 70
475 -49 322 -288 655 -572 797 -28 14 -54 32 -58 41 -7 18 17 183 37 263 8 28
10 52 6 52 -7 0 -22 -18 -25 -30 -9 -40 -18 -97 -16 -104 2 -4 -3 -14 -9 -22
-6 -8 -13 -38 -15 -67 -3 -73 -21 -72 -83 5 -71 88 -86 102 -171 169 -41 32
-81 63 -87 69 -17 14 -95 48 -163 70 -63 21 -213 32 -280 21z m1200 -840 c0
-6 -4 -13 -10 -16 -5 -3 -10 1 -10 9 0 9 5 16 10 16 6 0 10 -4 10 -9z m17
-963 c-3 -7 -5 -2 -5 12 0 14 2 19 5 13 2 -7 2 -19 0 -25z m205 -176 c20 -14
24 -32 7 -32 -13 0 -117 98 -131 124 -7 13 -7 21 2 26 8 5 29 -12 58 -49 25
-31 54 -62 64 -69z m-535 -148 c-3 -3 -12 -4 -19 -1 -8 3 -5 6 6 6 11 1 17 -2
13 -5z m531 -617 c-4 -29 -71 -56 -93 -37 -14 12 -14 15 1 31 9 10 26 19 38
21 54 8 57 7 54 -15z m-583 -77 c3 -5 1 -10 -4 -10 -6 0 -11 5 -11 10 0 6 2
10 4 10 3 0 8 -4 11 -10z m-897 -38 c6 -18 -15 -14 -22 4 -4 10 -1 14 6 12 6
-2 14 -10 16 -16z m2123 -342 c26 -14 24 -36 -7 -66 -24 -25 -26 -25 -45 -8
-21 19 -26 70 -6 77 20 9 37 8 58 -3z m20 -200 c24 -13 24 -32 0 -54 -27 -24
-65 -17 -69 12 -6 43 28 64 69 42z m-73 -233 c6 -29 -26 -59 -49 -46 -36 19
-15 73 26 67 11 -2 21 -11 23 -21z m-2003 -177 c4 -6 -7 -10 -24 -10 -17 0
-31 5 -31 10 0 6 11 10 24 10 14 0 28 -4 31 -10z m-1140 -50 c3 -6 -1 -7 -9
-4 -18 7 -21 14 -7 14 6 0 13 -4 16 -10z m2973 -25 c3 -21 -32 -50 -48 -40
-12 7 -13 48 -3 59 14 14 48 1 51 -19z m-3043 -15 c3 -5 1 -10 -4 -10 -6 0
-11 5 -11 10 0 6 2 10 4 10 3 0 8 -4 11 -10z m-78 -36 c-3 -3 -12 -4 -19 -1
-8 3 -5 6 6 6 11 1 17 -2 13 -5z m1853 -14 c12 -8 11 -10 -7 -10 -13 0 -23 5
-23 10 0 13 11 13 30 0z m137 -576 c-3 -3 -12 -4 -19 -1 -8 3 -5 6 6 6 11 1
17 -2 13 -5z"/>
<path d="M4436 4615 c9 -14 20 -22 26 -19 5 3 2 14 -8 25 -25 27 -37 23 -18
-6z"/>
<path d="M4480 4551 c0 -5 5 -13 10 -16 6 -3 10 -2 10 4 0 5 -4 13 -10 16 -5
3 -10 2 -10 -4z"/>
<path d="M4510 4500 c0 -5 5 -10 10 -10 6 0 10 5 10 10 0 6 -4 10 -10 10 -5 0
-10 -4 -10 -10z"/>
<path d="M3546 4462 c-11 -18 24 -29 109 -36 44 -4 98 -11 120 -16 22 -5 67
-14 100 -20 53 -11 141 -45 155 -61 14 -15 89 -42 158 -55 127 -25 144 -31
210 -74 34 -23 67 -38 72 -35 19 12 -4 37 -69 75 -51 31 -89 44 -170 59 -57
11 -123 30 -145 42 -142 74 -150 76 -311 104 -128 22 -221 29 -229 17z"/>
<path d="M4535 4450 c3 -5 10 -10 16 -10 5 0 9 5 9 10 0 6 -7 10 -16 10 -8 0
-12 -4 -9 -10z"/>
<path d="M4556 4403 c4 -16 13 -40 20 -55 8 -15 14 -35 14 -46 0 -10 4 -22 9
-27 9 -10 13 -31 32 -195 15 -131 5 -310 -21 -378 -24 -62 -25 -73 -6 -66 13
5 19 24 33 102 3 17 9 32 14 32 14 0 10 287 -5 376 -23 131 -70 284 -88 284
-4 0 -5 -12 -2 -27z"/>
<path d="M3360 4318 c0 -24 96 -38 259 -38 194 0 270 -12 351 -54 36 -18 99
-43 140 -56 41 -12 84 -25 95 -30 11 -4 36 -13 55 -19 19 -7 54 -20 77 -29 44
-17 57 -14 48 10 -6 15 -107 56 -190 78 -27 7 -54 17 -59 21 -6 5 -20 9 -32 9
-12 0 -48 14 -80 31 -110 58 -126 61 -349 69 -115 5 -234 11 -262 15 -44 7
-53 5 -53 -7z"/>
<path d="M3468 4163 c-10 -2 -18 -11 -18 -19 0 -11 24 -14 130 -14 83 0 156
-6 205 -17 77 -16 100 -13 74 11 -33 32 -313 60 -391 39z"/>
<path d="M4233 4014 c-7 -3 -13 -12 -13 -20 0 -11 16 -14 70 -14 94 0 130 -17
173 -83 18 -28 47 -37 47 -14 0 27 -62 99 -97 113 -37 16 -158 27 -180 18z"/>
<path d="M3850 4000 c0 -5 8 -25 17 -45 21 -43 49 -49 38 -7 -10 41 -55 84
-55 52z"/>
<path d="M3467 3984 c-4 -4 -7 -14 -7 -23 0 -8 -10 -25 -21 -37 -24 -25 -22
-49 9 -99 29 -47 85 -68 279 -102 47 -8 80 3 86 28 11 40 -18 83 -94 140 -61
46 -88 59 -149 74 -41 10 -80 19 -85 22 -6 2 -14 0 -18 -3z m118 -73 c3 -5 1
-20 -4 -33 -5 -13 -12 -35 -15 -50 -9 -39 -37 -36 -76 8 -36 41 -36 65 0 75
37 10 88 10 95 0z m101 -102 c8 -14 -14 -29 -32 -22 -16 6 -7 33 11 33 8 0 17
-5 21 -11z m89 -34 c0 -30 -39 -27 -43 3 -3 20 0 23 20 20 15 -2 23 -10 23
-23z"/>
<path d="M4200 3881 c-13 -25 -13 -71 0 -71 14 0 30 35 30 64 0 31 -15 34 -30
7z"/>
<path d="M4230 3708 c-83 -42 -76 -105 14 -129 23 -6 67 -20 99 -30 75 -25 93
-24 123 6 18 18 25 35 24 62 0 21 1 49 2 62 3 23 -2 25 -67 37 -104 19 -145
17 -195 -8z m63 -52 c-3 -41 -17 -52 -50 -40 -38 13 -41 39 -6 58 40 22 58 16
56 -18z m102 -46 c0 -7 -6 -15 -12 -17 -8 -3 -13 4 -13 17 0 13 5 20 13 18 6
-3 12 -11 12 -18z"/>
<path d="M4579 3603 c-18 -20 -18 -148 -1 -165 9 -9 12 -9 13 3 1 39 4 179 3
179 -1 0 -8 -7 -15 -17z"/>
<path d="M4083 3523 c-21 -8 -16 -122 6 -163 11 -19 29 -53 40 -75 l20 -40
-28 -30 c-16 -16 -34 -40 -40 -53 -10 -18 -19 -22 -44 -20 -23 2 -32 -2 -35
-14 -2 -12 7 -18 38 -23 42 -7 70 5 70 31 0 7 16 29 35 48 45 45 44 68 -1 152
-31 56 -37 75 -36 125 1 60 -3 70 -25 62z"/>
<path d="M3681 3342 c-16 -30 -13 -99 5 -127 12 -19 25 -25 50 -25 41 0 47 26
9 36 -32 8 -49 38 -40 71 5 21 10 24 40 20 35 -5 55 7 39 23 -5 5 -28 12 -51
16 -35 5 -43 3 -52 -14z"/>
<path d="M3842 3198 c5 -13 57 -30 69 -22 5 2 6 11 2 19 -6 18 -77 21 -71 3z"/>
<path d="M3552 3069 c-33 -12 -27 -26 15 -34 20 -3 71 -24 113 -45 100 -50
182 -77 274 -91 62 -9 78 -16 91 -35 18 -27 35 -24 35 7 0 24 -55 59 -95 59
-66 1 -184 39 -286 91 -90 46 -122 57 -147 48z"/>
<path d="M941 2509 c-13 -11 -21 -22 -18 -25 9 -9 47 16 47 31 0 19 0 19 -29
-6z"/>
<path d="M871 2466 c-17 -9 -20 -15 -11 -21 7 -4 21 1 33 14 24 24 14 27 -22
7z"/>
<path d="M800 2415 c-14 -16 -10 -18 14 -9 9 3 16 10 16 15 0 14 -16 11 -30
-6z"/>
<path d="M750 2385 c-7 -8 -18 -15 -24 -15 -7 0 -21 -8 -32 -17 -10 -10 -31
-24 -46 -32 -16 -8 -28 -18 -28 -23 0 -4 -6 -8 -14 -8 -14 0 -42 -27 -35 -35
4 -4 172 105 193 126 5 5 7 11 4 14 -3 3 -11 -1 -18 -10z"/>
<path d="M515 2240 c-4 -6 -24 -19 -46 -30 -21 -11 -39 -25 -39 -30 0 -5 25 2
55 17 30 15 55 33 55 40 0 15 -16 17 -25 3z"/>
<path d="M390 2170 c0 -5 4 -10 9 -10 6 0 13 5 16 10 3 6 -1 10 -9 10 -9 0
-16 -4 -16 -10z"/>
<path d="M330 2151 c0 -5 -13 -14 -29 -21 -16 -6 -31 -20 -34 -31 -6 -22 8
-26 16 -5 3 8 24 22 46 32 44 19 53 34 21 34 -11 0 -20 -4 -20 -9z"/>
<path d="M237 2063 c-4 -3 -7 -16 -7 -27 1 -21 1 -21 15 -2 8 11 15 23 15 28
0 10 -14 11 -23 1z"/>
<path d="M222 1998 c-15 -15 -16 -168 -2 -168 6 0 10 -9 10 -19 0 -11 5 -23
11 -27 7 -4 9 0 6 12 -24 81 -26 104 -17 154 11 58 10 66 -8 48z"/>
<path d="M260 1755 c0 -8 7 -15 16 -15 14 0 14 3 4 15 -7 8 -14 15 -16 15 -2
0 -4 -7 -4 -15z"/>
<path d="M3690 1381 c0 -25 6 -27 13 -6 4 8 2 17 -3 20 -6 4 -10 -3 -10 -14z"/>
<path d="M3720 1170 c0 -19 3 -21 12 -12 9 9 9 15 0 24 -9 9 -12 7 -12 -12z"/>
<path d="M3270 1155 c0 -8 5 -15 10 -15 6 0 10 7 10 15 0 8 -4 15 -10 15 -5 0
-10 -7 -10 -15z"/>
<path d="M3246 962 c-3 -6 -1 -14 5 -17 15 -10 25 3 12 16 -7 7 -13 7 -17 1z"/>
<path d="M3690 955 c0 -8 5 -15 10 -15 6 0 10 7 10 15 0 8 -4 15 -10 15 -5 0
-10 -7 -10 -15z"/>
<path d="M3226 761 c-4 -7 -5 -15 -2 -18 9 -9 19 4 14 18 -4 11 -6 11 -12 0z"/>
<path d="M3590 750 c0 -19 3 -21 12 -12 9 9 9 15 0 24 -9 9 -12 7 -12 -12z"/>
</g>
</svg>
